HIERARCHY
ROOT Hips
{
	OFFSET 0.000000 87.230942 0.000000
	CHANNELS 6 Xposition Yposition Zposition Xrotation Yrotation Zrotation
	JOINT Pelvis
	{
		OFFSET 0.000000 0.000000 0.000000
		CHANNELS 3 Xrotation Yrotation Zrotation
		JOINT LeftUpLeg
		{
			OFFSET 12.017000 -9.376404 -2.439400
			CHANNELS 3 Xrotation Yrotation Zrotation
			JOINT LeftLeg
			{
				OFFSET -0.007312 -32.846973 2.110600
				CHANNELS 3 Xrotation Yrotation Zrotation
				JOINT LeftFoot
				{
					OFFSET 0.007312 -32.065170 -0.570400
					CHANNELS 3 Xrotation Yrotation Zrotation
					JOINT LeftToeBase
					{
						OFFSET 0.728300 -11.045900 13.180700
						CHANNELS 3 Xrotation Yrotation Zrotation
						End Site
						{
							OFFSET 0.000000 17.212589 0.000000
						}
					}
				}
				JOINT LeftPantLeg
				{
					OFFSET 0.002788 -16.709013 -3.143600
					CHANNELS 3 Xrotation Yrotation Zrotation
					End Site
					{
						OFFSET -0.605125 24.528742 0.000000
					}
				}
			}
			JOINT Left_Butt
			{
				OFFSET -6.630234 1.326584 -3.183700
				CHANNELS 3 Xrotation Yrotation Zrotation
				End Site
				{
					OFFSET -0.498041 20.188049 0.000000
				}
			}
		}
		JOINT RightUpLeg
		{
			OFFSET -11.717000 -9.376404 -2.439400
			CHANNELS 3 Xrotation Yrotation Zrotation
			JOINT RightLeg
			{
				OFFSET -0.003241 -32.846912 2.110600
				CHANNELS 3 Xrotation Yrotation Zrotation
				JOINT RightFoot
				{
					OFFSET 0.003241 -32.065136 -0.570500
					CHANNELS 3 Xrotation Yrotation Zrotation
					JOINT RightToeBase
					{
						OFFSET -0.728300 -11.045901 13.180700
						CHANNELS 3 Xrotation Yrotation Zrotation
						End Site
						{
							OFFSET 0.000000 17.212593 0.000000
						}
					}
				}
				JOINT RightPantLeg
				{
					OFFSET 0.008142 -16.708982 -3.143700
					CHANNELS 3 Xrotation Yrotation Zrotation
					End Site
					{
						OFFSET 0.605088 24.528715 0.000000
					}
				}
			}
			JOINT Right_Butt
			{
				OFFSET 6.630732 1.326584 -3.183700
				CHANNELS 3 Xrotation Yrotation Zrotation
				End Site
				{
					OFFSET 0.498015 20.188240 0.000000
				}
			}
		}
	}
	JOINT Spine
	{
		OFFSET -0.062400 7.848404 3.918300
		CHANNELS 3 Xrotation Yrotation Zrotation
		JOINT Spine1
		{
			OFFSET -0.072800 11.422302 0.713400
			CHANNELS 3 Xrotation Yrotation Zrotation
			JOINT Spine2
			{
				OFFSET -0.083200 13.054001 -1.931600
				CHANNELS 3 Xrotation Yrotation Zrotation
				JOINT Neck
				{
					OFFSET -0.092200 14.121796 -5.138800
					CHANNELS 3 Xrotation Yrotation Zrotation
					JOINT Head
					{
						OFFSET 0.000200 10.447403 -0.842000
						CHANNELS 3 Xrotation Yrotation Zrotation
						JOINT Visor
						{
							OFFSET 0.457100 25.671204 16.550400
							CHANNELS 3 Xrotation Yrotation Zrotation
							End Site
							{
								OFFSET 0.000000 26.061493 0.000000
							}
						}
						JOINT HairMidA
						{
							OFFSET 0.459400 31.585403 8.437400
							CHANNELS 3 Xrotation Yrotation Zrotation
							End Site
							{
								OFFSET 0.000000 26.061493 0.000000
							}
						}
						JOINT HairMidB
						{
							OFFSET 0.464000 33.309204 -8.389700
							CHANNELS 3 Xrotation Yrotation Zrotation
							End Site
							{
								OFFSET 0.000000 26.061493 0.000000
							}
						}
						JOINT HairMidC
						{
							OFFSET 0.466600 27.991196 -17.375099
							CHANNELS 3 Xrotation Yrotation Zrotation
							End Site
							{
								OFFSET 0.000000 26.061493 0.000000
							}
						}
						JOINT HairMidD
						{
							OFFSET 0.467700 17.888092 -21.169500
							CHANNELS 3 Xrotation Yrotation Zrotation
							End Site
							{
								OFFSET 0.000000 26.061493 0.000000
							}
						}
						JOINT HairMidE
						{
							OFFSET 5.325700 3.514603 -14.369699
							CHANNELS 3 Xrotation Yrotation Zrotation
							End Site
							{
								OFFSET 0.000000 26.061493 0.000000
							}
						}
						JOINT HairMidF
						{
							OFFSET -4.394100 3.514603 -14.372400
							CHANNELS 3 Xrotation Yrotation Zrotation
							End Site
							{
								OFFSET 0.000000 26.061493 0.000000
							}
						}
						JOINT HairLeftA
						{
							OFFSET 15.319900 25.746506 2.623300
							CHANNELS 3 Xrotation Yrotation Zrotation
							End Site
							{
								OFFSET 0.000000 26.061493 0.000000
							}
						}
						JOINT HairLeftB
						{
							OFFSET 12.619500 29.289398 -8.731499
							CHANNELS 3 Xrotation Yrotation Zrotation
							End Site
							{
								OFFSET 0.000000 26.061493 0.000000
							}
						}
						JOINT HairLeftC
						{
							OFFSET 15.714800 15.959900 2.909800
							CHANNELS 3 Xrotation Yrotation Zrotation
							End Site
							{
								OFFSET 0.000000 26.061493 0.000000
							}
						}
						JOINT HairLeftD
						{
							OFFSET 16.101700 18.437408 -7.553200
							CHANNELS 3 Xrotation Yrotation Zrotation
							End Site
							{
								OFFSET 0.000000 26.061493 0.000000
							}
						}
						JOINT HairLeftE
						{
							OFFSET 9.731900 17.915009 -18.316799
							CHANNELS 3 Xrotation Yrotation Zrotation
							End Site
							{
								OFFSET 0.000000 26.061493 0.000000
							}
						}
						JOINT HairLeftF
						{
							OFFSET 11.204300 4.953598 -9.668100
							CHANNELS 3 Xrotation Yrotation Zrotation
							End Site
							{
								OFFSET 0.000000 26.061493 0.000000
							}
						}
						JOINT HairRightA
						{
							OFFSET -14.397900 25.746307 2.615100
							CHANNELS 3 Xrotation Yrotation Zrotation
							End Site
							{
								OFFSET 0.000000 26.061493 0.000000
							}
						}
						JOINT HairRightB
						{
							OFFSET -11.691200 29.289200 -8.738199
							CHANNELS 3 Xrotation Yrotation Zrotation
							End Site
							{
								OFFSET 0.000000 26.061493 0.000000
							}
						}
						JOINT HairRightC
						{
							OFFSET -14.792900 15.959702 2.901400
							CHANNELS 3 Xrotation Yrotation Zrotation
							End Site
							{
								OFFSET 0.000000 26.061493 0.000000
							}
						}
						JOINT HairRightD
						{
							OFFSET -15.174000 18.437195 -7.561900
							CHANNELS 3 Xrotation Yrotation Zrotation
							End Site
							{
								OFFSET 0.000000 26.061493 0.000000
							}
						}
						JOINT HairRightE
						{
							OFFSET -8.798200 17.914902 -18.322001
							CHANNELS 3 Xrotation Yrotation Zrotation
							End Site
							{
								OFFSET 0.000000 26.061493 0.000000
							}
						}
						JOINT HairRightF
						{
							OFFSET -10.275200 4.953506 -9.674099
							CHANNELS 3 Xrotation Yrotation Zrotation
							End Site
							{
								OFFSET 0.000000 26.061493 0.000000
							}
						}
					}
				}
				JOINT LeftShoulder
				{
					OFFSET 5.133500 7.341202 -1.867600
					CHANNELS 3 Xrotation Yrotation Zrotation
					JOINT LeftArm
					{
						OFFSET 8.072663 0.936867 -2.176600
						CHANNELS 3 Xrotation Yrotation Zrotation
						JOINT LeftForeArm
						{
							OFFSET 31.271999 0.000000 0.000000
							CHANNELS 3 Xrotation Yrotation Zrotation
							JOINT LeftHand
							{
								OFFSET 31.771030 0.000000 0.000000
								CHANNELS 3 Xrotation Yrotation Zrotation
								JOINT LeftHandThumb1
								{
									OFFSET 2.886520 -2.557846 4.416640
									CHANNELS 3 Xrotation Yrotation Zrotation
									JOINT LeftHandThumb2
									{
										OFFSET 2.371025 -1.368912 1.368911
										CHANNELS 3 Xrotation Yrotation Zrotation
										JOINT LeftHandThumb3
										{
											OFFSET 2.243378 -1.295212 1.295213
											CHANNELS 3 Xrotation Yrotation Zrotation
											End Site
											{
												OFFSET -0.332611 2.876945 0.020015
											}
										}
									}
								}
								JOINT LeftHandIndex1
								{
									OFFSET 8.568985 -0.641945 3.119977
									CHANNELS 3 Xrotation Yrotation Zrotation
									JOINT LeftHandIndex2
									{
										OFFSET 3.348503 0.000000 0.000000
										CHANNELS 3 Xrotation Yrotation Zrotation
										JOINT LeftHandIndex3
										{
											OFFSET 3.314552 0.000000 0.000000
											CHANNELS 3 Xrotation Yrotation Zrotation
											End Site
											{
												OFFSET -1.032898 3.075485 0.678796
											}
										}
									}
								}
								JOINT LeftHandMiddle1
								{
									OFFSET 8.124603 0.000000 0.000000
									CHANNELS 3 Xrotation Yrotation Zrotation
									JOINT LeftHandMiddle2
									{
										OFFSET 4.166275 0.000000 0.000000
										CHANNELS 3 Xrotation Yrotation Zrotation
										JOINT LeftHandMiddle3
										{
											OFFSET 3.018135 0.000000 0.000000
											CHANNELS 3 Xrotation Yrotation Zrotation
											End Site
											{
												OFFSET -1.032700 2.767982 0.617226
											}
										}
									}
								}
								JOINT LeftHandRing1
								{
									OFFSET 8.571686 -0.031357 -2.884048
									CHANNELS 3 Xrotation Yrotation Zrotation
									JOINT LeftHandRing2
									{
										OFFSET 3.671181 0.000000 0.000000
										CHANNELS 3 Xrotation Yrotation Zrotation
										JOINT LeftHandRing3
										{
											OFFSET 2.728851 0.000000 0.000000
											CHANNELS 3 Xrotation Yrotation Zrotation
											End Site
											{
												OFFSET -0.815796 2.539223 0.577389
											}
										}
									}
								}
								JOINT LeftHandPinky1
								{
									OFFSET 7.854515 -0.675232 -5.213020
									CHANNELS 3 Xrotation Yrotation Zrotation
									JOINT LeftHandPinky2
									{
										OFFSET 3.068596 0.000000 0.000000
										CHANNELS 3 Xrotation Yrotation Zrotation
										JOINT LeftHandPinky3
										{
											OFFSET 2.396042 0.000000 0.000000
											CHANNELS 3 Xrotation Yrotation Zrotation
											End Site
											{
												OFFSET -0.524597 2.267998 0.567429
											}
										}
									}
								}
							}
							JOINT LeftSleeve
							{
								OFFSET 19.684509 -0.200119 0.476146
								CHANNELS 3 Xrotation Yrotation Zrotation
								End Site
								{
									OFFSET -0.031017 25.731133 -0.002868
								}
							}
						}
					}
				}
				JOINT RightShoulder
				{
					OFFSET -4.395900 7.341202 -1.870200
					CHANNELS 3 Xrotation Yrotation Zrotation
					JOINT RightArm
					{
						OFFSET -8.071453 0.936867 -2.181100
						CHANNELS 3 Xrotation Yrotation Zrotation
						JOINT RightForeArm
						{
							OFFSET -31.272011 0.000000 0.000000
							CHANNELS 3 Xrotation Yrotation Zrotation
							JOINT RightHand
							{
								OFFSET -31.771019 0.000000 0.000000
								CHANNELS 3 Xrotation Yrotation Zrotation
								JOINT RightHandThumb1
								{
									OFFSET -2.886520 -2.557808 4.416626
									CHANNELS 3 Xrotation Yrotation Zrotation
									JOINT RightHandThumb2
									{
										OFFSET -2.371056 -1.368927 1.368928
										CHANNELS 3 Xrotation Yrotation Zrotation
										JOINT RightHandThumb3
										{
											OFFSET -2.243362 -1.295204 1.295206
											CHANNELS 3 Xrotation Yrotation Zrotation
											End Site
											{
												OFFSET 0.332642 2.876938 0.020047
											}
										}
									}
								}
								JOINT RightHandIndex1
								{
									OFFSET -8.568993 -0.641953 3.120017
									CHANNELS 3 Xrotation Yrotation Zrotation
									JOINT RightHandIndex2
									{
										OFFSET -3.348518 0.000000 0.000000
										CHANNELS 3 Xrotation Yrotation Zrotation
										JOINT RightHandIndex3
										{
											OFFSET -3.314552 0.000000 0.000000
											CHANNELS 3 Xrotation Yrotation Zrotation
											End Site
											{
												OFFSET 1.032898 3.075478 0.678804
											}
										}
									}
								}
								JOINT RightHandMiddle1
								{
									OFFSET -8.124588 0.000000 0.000000
									CHANNELS 3 Xrotation Yrotation Zrotation
									JOINT RightHandMiddle2
									{
										OFFSET -4.166275 0.000000 0.000000
										CHANNELS 3 Xrotation Yrotation Zrotation
										JOINT RightHandMiddle3
										{
											OFFSET -3.018097 0.000000 0.000000
											CHANNELS 3 Xrotation Yrotation Zrotation
											End Site
											{
												OFFSET 1.032700 2.767937 0.617197
											}
										}
									}
								}
								JOINT RightHandRing1
								{
									OFFSET -8.571747 -0.031349 -2.884061
									CHANNELS 3 Xrotation Yrotation Zrotation
									JOINT RightHandRing2
									{
										OFFSET -3.671204 0.000000 0.000000
										CHANNELS 3 Xrotation Yrotation Zrotation
										JOINT RightHandRing3
										{
											OFFSET -2.728874 0.000000 0.000000
											CHANNELS 3 Xrotation Yrotation Zrotation
											End Site
											{
												OFFSET 0.815804 2.539261 0.577413
											}
										}
									}
								}
								JOINT RightHandPinky1
								{
									OFFSET -7.854561 -0.675247 -5.212970
									CHANNELS 3 Xrotation Yrotation Zrotation
									JOINT RightHandPinky2
									{
										OFFSET -3.068550 0.000000 0.000000
										CHANNELS 3 Xrotation Yrotation Zrotation
										JOINT RightHandPinky3
										{
											OFFSET -2.395981 0.000000 0.000000
											CHANNELS 3 Xrotation Yrotation Zrotation
											End Site
											{
												OFFSET 0.524605 2.267952 0.567413
											}
										}
									}
								}
							}
							JOINT RightSleeve
							{
								OFFSET -19.684753 -0.200165 0.476065
								CHANNELS 3 Xrotation Yrotation Zrotation
								End Site
								{
									OFFSET 0.031342 25.731255 -0.002917
								}
							}
						}
					}
				}
				JOINT Hood
				{
					OFFSET 0.369700 14.447800 -5.317800
					CHANNELS 3 Xrotation Yrotation Zrotation
					JOINT Hood1
					{
						OFFSET 0.001700 -5.553802 -5.895100
						CHANNELS 3 Xrotation Yrotation Zrotation
						JOINT Hood2
						{
							OFFSET -0.000200 -8.380501 0.763600
							CHANNELS 3 Xrotation Yrotation Zrotation
							End Site
							{
								OFFSET 0.000000 8.415215 0.000000
							}
						}
					}
				}
				JOINT Left_Breast
				{
					OFFSET 5.682500 3.120102 3.188800
					CHANNELS 3 Xrotation Yrotation Zrotation
					End Site
					{
						OFFSET 0.000000 10.528564 0.000000
					}
				}
				JOINT Right_Breast
				{
					OFFSET -4.947600 3.120102 3.185900
					CHANNELS 3 Xrotation Yrotation Zrotation
					End Site
					{
						OFFSET 0.000000 10.528564 0.000000
					}
				}
				JOINT Whistle
				{
					OFFSET 0.368200 11.471298 0.095400
					CHANNELS 3 Xrotation Yrotation Zrotation
					JOINT Whistle1
					{
						OFFSET -0.002000 -6.349899 7.479800
						CHANNELS 3 Xrotation Yrotation Zrotation
						JOINT Whistle2
						{
							OFFSET -0.001300 -8.217598 4.717600
							CHANNELS 3 Xrotation Yrotation Zrotation
							End Site
							{
								OFFSET 0.000000 9.475479 0.000000
							}
						}
					}
				}
			}
		}
		JOINT Belly
		{
			OFFSET 0.212400 1.593002 3.163700
			CHANNELS 3 Xrotation Yrotation Zrotation
			End Site
			{
				OFFSET 0.000000 7.496635 0.000000
			}
		}
	}
	JOINT FitGrandmaFacialAnim_Joint
	{
		OFFSET 1.150000 -86.211197 -1.220100
		CHANNELS 3 Xrotation Yrotation Zrotation
		End Site
		{
			OFFSET 0.000000 31.666618 0.000000
		}
	}
}
MOTION
Frames: 4
Frame Time: 0.016667
-4.149363 81.985168 -0.390510 1.774719 -44.783337 4.638345 0.000000 -0.000002 -0.000000 -19.749968 8.168873 12.752912 14.096373 -9.112914 3.775379 2.919828 -2.189146 -18.862966 0.000000 0.000002 0.000000 -0.000000 0.000004 0.000001 -0.000001 0.000003 0.000001 -8.113578 -7.664247 -16.282211 28.119920 -11.048876 -8.796668 -16.885650 -7.309662 24.605538 -0.000000 0.000002 -0.000000 0.000000 -0.000001 0.000004 0.000001 0.000002 0.000000 6.688967 0.738879 -0.676322 -0.557036 1.560423 -1.610235 -0.534576 1.560464 -1.609751 -19.005370 -1.508389 20.421620 -4.556867 11.720415 -16.000782 -0.000001 -0.000001 0.000000 -0.000001 -0.000001 0.000000 -0.000001 -0.000001 0.000000 -0.000001 -0.000001 0.000000 -0.000001 -0.000001 0.000000 -0.000001 -0.000001 0.000000 -0.000001 -0.000001 0.000000 -0.000001 -0.000001 0.000000 -0.000001 -0.000001 0.000000 -0.000001 -0.000001 0.000000 -0.000001 -0.000001 0.000000 -0.000001 -0.000001 0.000000 -0.000001 -0.000001 0.000000 -0.000001 -0.000001 0.000000 -0.000001 -0.000001 0.000000 -0.000001 -0.000001 0.000000 -0.000001 -0.000001 0.000000 -0.000001 -0.000001 0.000000 -0.000001 -0.000001 0.000000 -8.631165 -5.317957 -15.297515 0.075341 -2.626983 -31.066829 42.317513 -37.063339 15.465987 -23.800378 3.779305 5.091213 7.895974 12.754492 1.888097 -2.399862 10.098195 -6.912107 -0.000000 -0.000000 0.000007 10.366026 -5.431334 -20.260052 0.012400 0.242537 -14.888684 0.000003 -0.000001 0.000002 8.099322 -3.521116 -16.129432 0.036819 0.594727 -11.734525 -0.000001 -0.000000 0.000000 7.437970 -2.616135 -14.483985 -0.036254 0.187710 -10.043034 0.000001 -0.000001 -0.000004 6.501847 -1.624400 -10.619926 -0.001462 0.148108 -9.427965 -0.000003 -0.000000 0.000003 -0.000002 0.000000 0.000001 -0.620554 15.164837 -23.726503 -69.097049 11.570644 13.062493 113.321574 148.813771 -130.632504 -14.646410 20.622257 10.268453 0.299571 -0.474252 0.374526 -3.620652 -7.484587 8.065541 -0.000001 0.000001 0.000001 10.001350 7.473625 21.241251 -0.008301 -0.266176 15.389794 0.000000 0.000002 0.000002 6.820047 4.437981 24.757445 0.121741 -0.593785 18.466448 -0.000001 0.000003 0.000003 4.875293 1.715982 32.191938 -0.003232 -0.241530 22.203666 -0.000000 -0.000003 -0.000003 3.061673 -1.343079 39.368029 0.068277 -0.198038 27.160240 -0.000001 -0.000002 -0.000002 -0.000002 0.000000 -0.000002 -0.000000 0.000002 -0.000000 -0.000000 0.000002 -0.000000 -0.000000 0.000002 -0.000000 -0.000000 0.000002 -0.000000 -0.000000 0.000002 -0.000000 -0.000001 0.000002 -0.000000 -0.000001 -0.000001 0.000000 -0.000001 -0.000001 0.000000 0.000000 0.000002 -0.000001 0.000000 -0.000002 -0.000000 
-3.729641 81.857193 -0.485206 1.861669 -45.738058 4.863860 -0.000000 -0.000001 0.000000 -20.135985 8.268924 12.854389 15.055829 -8.371393 3.420445 2.230140 -2.091814 -18.591544 0.000000 -0.000002 -0.000000 0.000001 -0.000000 -0.000000 -0.000003 -0.000002 0.000000 -9.308136 -7.258550 -16.623166 28.949525 -10.268799 -9.280315 -16.794182 -7.212849 24.811292 0.000000 0.000002 -0.000000 -0.000002 0.000001 0.000002 -0.000000 0.000000 0.000001 6.825306 0.756397 -0.610614 -0.284722 1.586126 -1.496923 -0.262264 1.586190 -1.496445 -19.292207 0.711469 20.367003 -3.643173 13.440618 -15.407659 -0.000000 0.000002 0.000000 -0.000000 0.000002 0.000000 -0.000000 0.000002 0.000000 -0.000000 0.000002 0.000000 -0.000000 0.000002 0.000000 -0.000000 0.000002 0.000000 -0.000000 0.000002 0.000000 -0.000000 0.000002 0.000000 -0.000000 0.000002 0.000000 -0.000000 0.000002 0.000000 -0.000000 0.000002 0.000000 -0.000000 0.000002 0.000000 -0.000000 0.000002 0.000000 -0.000000 0.000002 0.000000 -0.000000 0.000002 0.000000 -0.000000 0.000002 0.000000 -0.000000 0.000002 0.000000 -0.000000 0.000002 0.000000 -0.000000 0.000002 0.000000 -8.545906 -5.440089 -14.847631 0.040956 -2.007570 -31.692208 42.522524 -37.721185 16.179352 -23.412150 3.306884 4.559609 7.803331 12.376350 1.963671 -2.337370 10.219263 -6.846323 -0.000003 0.000001 0.000003 10.515340 -5.092625 -20.325957 0.011415 0.243623 -15.207508 0.000001 -0.000001 0.000002 8.128688 -3.265510 -16.334850 0.039439 0.596854 -12.096716 -0.000001 -0.000002 0.000002 7.412085 -2.391973 -14.908264 -0.036560 0.190006 -10.461717 -0.000001 0.000002 -0.000001 6.330470 -1.420181 -11.092628 0.000931 0.151188 -10.093323 0.000000 -0.000003 -0.000002 -0.000001 -0.000000 0.000004 -1.211231 15.565846 -20.539012 -65.286377 12.486767 13.348853 113.302313 142.450780 -129.003818 -15.346284 19.991279 10.507313 0.841608 -1.185491 0.646246 -3.543949 -7.625415 7.985596 0.000005 0.000002 -0.000001 10.272578 7.143720 23.988120 -0.006342 -0.268639 17.205525 0.000001 0.000002 -0.000000 6.758859 4.033185 27.064502 0.133527 -0.599038 20.307595 -0.000003 0.000004 0.000003 4.642735 1.320723 34.431762 -0.002025 -0.250337 23.879673 0.000002 0.000003 0.000000 2.590320 -1.663370 41.407411 0.074436 -0.202421 28.788861 -0.000002 -0.000001 -0.000002 0.000001 -0.000001 0.000001 0.000000 0.000005 -0.000001 0.000000 0.000005 -0.000001 0.000000 0.000005 -0.000001 0.000000 0.000005 -0.000001 0.000000 0.000005 -0.000001 0.000000 0.000005 -0.000001 0.000000 0.000005 -0.000000 0.000000 0.000005 -0.000000 0.000001 0.000001 -0.000000 -0.000000 -0.000001 0.000000 
-3.313949 81.720612 -0.581670 1.960606 -46.687044 5.101732 -0.000000 0.000001 0.000000 -20.633841 8.339046 12.969642 16.185008 -7.658251 3.080314 1.581345 -2.006725 -18.330315 0.000000 -0.000000 0.000000 -0.000000 -0.000001 -0.000002 -0.000003 0.000003 0.000002 -10.505041 -6.819364 -16.954659 29.802069 -9.484001 -9.714677 -16.726165 -7.103418 24.978529 0.000000 -0.000000 -0.000000 -0.000000 0.000000 0.000002 -0.000001 0.000000 0.000002 6.983007 0.769317 -0.558633 0.030504 1.602061 -1.410631 0.052970 1.602111 -1.410148 -19.678866 2.847930 20.261700 -2.884398 15.081105 -14.720876 -0.000001 0.000002 0.000001 -0.000001 0.000002 0.000001 -0.000001 0.000002 0.000001 -0.000001 0.000002 0.000001 -0.000001 0.000002 0.000001 -0.000001 0.000002 0.000001 -0.000001 0.000002 0.000001 -0.000001 0.000002 0.000001 -0.000001 0.000002 0.000001 -0.000001 0.000002 0.000001 -0.000001 0.000002 0.000001 -0.000001 0.000002 0.000001 -0.000001 0.000002 0.000001 -0.000001 0.000002 0.000001 -0.000001 0.000002 0.000001 -0.000001 0.000002 0.000001 -0.000001 0.000002 0.000001 -0.000001 0.000002 0.000001 -0.000001 0.000002 0.000001 -8.451879 -5.621930 -14.376198 -0.075751 -1.533876 -32.297936 42.235380 -38.238572 16.524091 -22.717009 2.721494 4.212277 7.702779 11.981683 2.047352 -2.271938 10.346044 -6.777517 -0.000000 0.000002 0.000001 10.666654 -4.778038 -20.352538 0.010617 0.244523 -15.498647 0.000002 -0.000001 -0.000003 8.160063 -3.018657 -16.524663 0.041914 0.599038 -12.447963 0.000001 0.000000 -0.000003 7.387562 -2.161912 -15.340876 -0.036748 0.192310 -10.886802 0.000000 -0.000001 -0.000005 6.154518 -1.190083 -11.592650 0.003684 0.154462 -10.790898 -0.000002 -0.000001 0.000002 0.000000 -0.000000 0.000005 -1.838006 15.913863 -17.234358 -61.208617 13.459269 13.486400 111.295521 139.193477 -126.470119 -13.055755 19.376687 10.856542 1.302480 -1.793405 0.752550 -3.461113 -7.778558 7.899728 -0.000000 0.000002 -0.000001 10.560500 6.834462 26.258674 -0.005035 -0.270978 18.813689 -0.000002 -0.000002 0.000001 6.734480 3.630432 28.949255 0.144542 -0.603048 21.917401 0.000000 0.000003 -0.000003 4.449674 0.905840 36.260354 -0.000536 -0.257378 25.307377 0.000000 0.000002 -0.000000 2.154128 -2.026324 43.046724 0.080085 -0.205627 30.188196 -0.000003 -0.000004 -0.000001 -0.000003 0.000004 -0.000003 -0.000000 -0.000001 -0.000000 -0.000000 -0.000001 -0.000000 -0.000000 -0.000001 -0.000000 -0.000000 -0.000001 -0.000000 -0.000000 -0.000001 -0.000000 -0.000001 -0.000001 0.000000 -0.000001 -0.000004 0.000001 -0.000001 -0.000004 0.000001 0.000000 -0.000003 -0.000000 -0.000000 0.000001 0.000000 
-2.905054 81.575348 -0.677184 2.072484 -47.621459 5.349489 -0.000000 -0.000003 0.000000 -21.314632 8.364328 13.105209 17.588307 -6.983056 2.761363 1.015441 -1.957268 -18.048539 -0.000000 0.000000 0.000000 0.000001 0.000004 0.000001 -0.000001 0.000001 -0.000000 -11.738465 -6.393964 -17.363224 30.740069 -8.642421 -9.955265 -16.717363 -6.959506 25.031004 0.000000 -0.000002 0.000000 -0.000001 0.000001 -0.000000 0.000002 -0.000004 0.000000 7.158690 0.781642 -0.514176 0.381788 1.616022 -1.339482 0.404245 1.616076 -1.339004 -20.090177 4.892748 20.079764 -2.370501 16.634110 -14.025588 0.000000 0.000001 0.000000 0.000000 0.000001 0.000000 0.000000 0.000001 0.000000 0.000000 0.000001 0.000000 0.000000 0.000001 0.000000 0.000000 0.000001 0.000000 0.000000 0.000001 0.000000 0.000000 0.000001 0.000000 0.000000 0.000001 0.000000 0.000000 0.000001 0.000000 0.000000 0.000001 0.000000 0.000000 0.000001 0.000000 0.000000 0.000001 0.000000 0.000000 0.000001 0.000000 0.000000 0.000001 0.000000 0.000000 0.000001 0.000000 0.000000 0.000001 0.000000 0.000000 0.000001 0.000000 0.000000 0.000001 0.000000 -8.350766 -5.895223 -13.889795 -0.307272 -1.191901 -32.855536 41.504884 -38.584633 16.501865 -21.860762 2.062550 4.067435 7.595170 11.572948 2.139291 -2.203551 10.479042 -6.705545 -0.000002 0.000001 0.000000 10.817052 -4.496427 -20.333355 0.009950 0.245456 -15.754673 0.000001 0.000000 0.000002 8.192549 -2.786676 -16.693599 0.044370 0.601066 -12.787682 0.000000 0.000001 -0.000001 7.364242 -1.930025 -15.779279 -0.036710 0.194729 -11.318089 -0.000001 0.000000 -0.000002 5.974179 -0.935451 -12.117722 0.006721 0.157897 -11.523776 -0.000000 0.000000 -0.000000 -0.000000 -0.000001 0.000001 -2.473714 16.306108 -13.905145 -56.841278 14.356175 13.304796 109.584334 135.172299 -124.529348 -12.518408 18.763430 11.455873 1.709465 -2.341678 0.715087 -3.375402 -7.937526 7.810756 0.000000 -0.000002 0.000002 10.848330 6.547879 27.989733 -0.004361 -0.273187 20.162290 -0.000001 -0.000002 0.000004 6.739372 3.239583 30.352292 0.154416 -0.605496 23.251912 0.000000 -0.000001 -0.000002 4.297162 0.478139 37.613650 0.001107 -0.262434 26.447631 0.000001 -0.000002 -0.000001 1.767436 -2.429487 44.218358 0.085100 -0.207487 31.316376 -0.000001 -0.000001 0.000002 -0.000003 0.000001 -0.000002 -0.000000 -0.000000 0.000000 -0.000000 -0.000000 0.000000 -0.000000 -0.000000 0.000000 -0.000000 -0.000000 0.000000 -0.000000 -0.000000 0.000000 -0.000001 -0.000000 0.000000 -0.000001 -0.000000 0.000000 -0.000001 -0.000000 0.000000 0.000000 -0.000000 -0.000000 -0.000000 -0.000003 0.000000 
